<?xml version="1.0"?>
<svg
      xmlns="http://www.w3.org/2000/svg"
      width="512"
      height="512"
      enableBackground="new 0 0 512 512"
      viewBox="0 0 24 24"
    >
      <path
        xmlns="http://www.w3.org/2000/svg"
        d="M7 0H4a4 4 0 00-4 4v3a4 4 0 004 4h3a4 4 0 004-4V4a4 4 0 00-4-4zm2 7a2 2 0 01-2 2H4a2 2 0 01-2-2V4a2 2 0 012-2h3a2 2 0 012 2zM20 0h-3a4 4 0 00-4 4v3a4 4 0 004 4h3a4 4 0 004-4V4a4 4 0 00-4-4zm2 7a2 2 0 01-2 2h-3a2 2 0 01-2-2V4a2 2 0 012-2h3a2 2 0 012 2zM7 13H4a4 4 0 00-4 4v3a4 4 0 004 4h3a4 4 0 004-4v-3a4 4 0 00-4-4zm2 7a2 2 0 01-2 2H4a2 2 0 01-2-2v-3a2 2 0 012-2h3a2 2 0 012 2zM20 13h-3a4 4 0 00-4 4v3a4 4 0 004 4h3a4 4 0 004-4v-3a4 4 0 00-4-4zm2 7a2 2 0 01-2 2h-3a2 2 0 01-2-2v-3a2 2 0 012-2h3a2 2 0 012 2z"
        data-original="#000000"
      ></path>
    </svg>