<?xml version="1.0" encoding="UTF-8"?>
<svg width="752pt" height="752pt" version="1.1" viewBox="0 0 752 752" xmlns="http://www.w3.org/2000/svg">
 <defs>
  <clipPath id="a">
   <path d="m139.21 216h473.58v320h-473.58z"/>
  </clipPath>
 </defs>
 <g clip-path="url(#a)">
  <path d="m239.06 216.49c-35.121 0-63.91 28.789-63.91 63.91 0 35.121 28.789 63.91 63.91 63.91 17.625 0 33.641-7.2695 45.238-18.934-1.1914-5.8984-1.8516-11.977-1.8516-18.211 0-18.887 5.7617-36.508 15.551-51.277-9.6758-23.059-32.492-39.398-58.938-39.398zm273.79 0.027344c-26.438 0-49.254 16.324-58.938 39.367 9.7891 14.77 15.551 32.395 15.551 51.277 0 6.2383-0.65625 12.332-1.8516 18.238 11.598 11.664 27.609 18.934 45.238 18.934 35.121 0 63.91-28.789 63.91-63.91s-28.789-63.91-63.91-63.91zm-136.89 26.738c-35.121 0-63.91 28.789-63.91 63.91 0 35.121 28.789 63.91 63.91 63.91 35.121 0 63.91-28.789 63.91-63.91 0-35.121-28.789-63.91-63.91-63.91zm-136.89 112.09c-55.113 0-99.84 44.848-99.84 99.953v38.676h0.003906c-0.015624 3.9258 1.5273 7.6953 4.293 10.484 2.7656 2.7852 6.5234 4.3594 10.449 4.375h92.551v-26.766c0-43.391 22.961-80.289 56.191-103.62-17.332-14.336-39.461-23.094-63.648-23.094zm273.79 0.054688c-24.18 0-46.266 8.7461-63.562 23.066 33.242 23.328 56.219 60.195 56.219 103.6v26.738h92.469c3.9258 0 7.6914-1.5586 10.465-4.3359 2.7773-2.7734 4.3359-6.5391 4.3359-10.465v-38.645c0-55.105-44.812-99.953-99.926-99.953zm-136.89 26.707c-55.113 0-99.84 44.848-99.84 99.953v38.676l0.003906 0.003907c0.007812 3.9102 1.5625 7.6602 4.3242 10.426 2.7617 2.7656 6.5078 4.3281 10.418 4.3438h170.19c3.9297 0.015625 7.7031-1.5312 10.492-4.3047 2.7852-2.7695 4.3555-6.5352 4.3633-10.465v-38.676c0-55.105-44.84-99.953-99.953-99.953z"/>
 </g>
</svg>
